<?xml version="1.0" encoding="UTF-8"?>
<svg width="209px" height="60px" viewBox="0 0 209 60" version="1.1" xmlns="http://www.w3.org/2000/svg" xmlns:xlink="http://www.w3.org/1999/xlink">
    <!-- Generator: Sketch 50 (54983) - http://www.bohemiancoding.com/sketch -->
    <title>Logo</title>
    <desc>Created with Sketch.</desc>
    <defs></defs>
    <g id="Aspire-UI-Stylesheet" stroke="none" stroke-width="1" fill="none" fill-rule="evenodd">
        <g id="Aspire-Logo" transform="translate(-101.000000, -315.000000)" fill="#00D367">
            <g id="Group-6" transform="translate(101.000000, 80.000000)">
                <g id="Group-3" transform="translate(0.000000, 177.000000)">
                    <path d="M58.2395921,95.7413963 C58.2013914,95.8888291 58.2125044,96.1110216 58.0539139,96.1526319 C57.8925452,96.1949377 57.7781749,96.0032287 57.6922814,95.881527 C57.1634922,95.1332358 31.2039725,66.889531 30.1183803,65.7975776 C29.6379786,65.3143641 29.4591632,65.3564221 28.9634483,65.9246109 C28.7960829,66.1164452 1.89599488,95.4366786 1.44291239,95.9366985 C1.23975455,96.1609772 1.11762833,96.1827676 1.02733596,95.8379463 C0.21690405,92.7466088 -0.129563984,89.6078656 0.043496394,86.4145305 C0.292610731,81.8146722 1.47127345,77.4651715 3.72788817,73.4512197 C8.04953573,65.7640806 14.4639984,60.68947 23.0871513,58.7949812 C33.8149269,56.4380262 43.1445598,59.3523747 50.86722,67.1331661 C55.252651,71.5517469 57.8206586,76.9738446 58.8436249,83.1224432 C59.1104504,84.7263549 59.2426477,86.3403504 59.2403325,88.1572979 C59.2549182,90.6026895 58.9001155,93.1920367 58.2395921,95.7413963 Z M8.6303935,109.179529 C8.39250783,108.943544 8.35361265,108.79414 8.62101698,108.559546 C8.94664832,108.273837 29.0129702,86.4833325 29.4535507,85.9723015 C29.6014913,85.8006442 29.7092633,85.779897 29.8544257,85.9710265 C30.4665616,86.7772709 50.2214906,108.234081 50.7023553,108.707327 C50.9234559,108.924883 50.7653285,109.02039 50.63371,109.15345 C49.4913957,110.308688 48.2717542,111.374911 46.9553377,112.326617 C42.5520797,115.510216 37.6532556,117.376076 32.23826,117.876096 C31.3575621,117.957462 30.4768642,117.972298 29.5877159,118 C21.4280638,117.86184 14.437119,114.938335 8.6303935,109.179529 Z M131.907031,76.2762161 C137.127551,74.2232833 145.435722,75.6863688 147.823492,84.0341739 C148.924249,87.8829593 148.732783,91.7063611 146.855859,95.3052524 C145.043066,98.7811671 142.072331,100.67357 138.217889,101.179153 C136.157255,101.449331 134.121509,101.318125 132.150357,100.585133 C130.363494,99.920758 128.918469,98.8103755 127.798844,97.2700964 C127.699406,97.133211 127.602863,96.9943552 127.429108,96.7494452 C127.429108,97.0130161 127.429108,97.1623035 127.429108,97.3115908 C127.429108,101.482943 127.429108,105.65418 127.429108,109.825417 C127.429108,110.390112 127.428992,110.390228 126.84487,110.390228 C125.34046,110.390228 123.835935,110.381651 122.331756,110.397299 C122.02129,110.400544 121.911318,110.340852 121.91155,109.999276 C121.921158,98.6876307 121.92081,87.375985 121.912707,76.0644552 C121.912476,75.7433947 121.99015,75.6448744 122.320875,75.6484674 C123.897403,75.6659693 125.474278,75.6641148 127.050806,75.6496265 C127.357221,75.6468448 127.439411,75.7394539 127.435706,76.0409263 C127.419963,77.3273705 127.428992,78.6141625 127.428992,79.9007227 C128.600709,78.2564756 130.049092,77.0067736 131.907031,76.2762161 Z M127.530745,89.8409648 C128.032446,93.8218833 131.068701,96.5498545 135.067264,96.6079236 C138.36363,96.6559088 141.096479,94.8462634 142.268196,91.810445 C142.946778,90.0521461 143.092403,88.2303305 142.711902,86.3891586 C142.132526,83.5850369 140.606122,81.4874802 137.853015,80.5341507 C135.084396,79.5756054 132.437672,79.9373491 130.152118,81.8635962 C128.183165,83.523143 127.460132,85.7696393 127.425172,88.2800543 C127.415564,88.80511 127.465572,89.3229794 127.530745,89.8409648 Z M79.6319848,101.276375 C77.7372341,101.456841 75.8757064,101.345455 74.0844446,100.643527 C68.8722596,98.6009096 68.2736675,93.0998796 69.9840134,89.9185988 C71.032331,87.9687068 72.7702276,86.9192909 74.8257681,86.3213302 C76.0829158,85.9555299 77.3752543,85.8077493 78.6813682,85.8029971 C81.1259762,85.7940723 83.5707001,85.7943042 86.0153081,85.8070539 C86.3430231,85.8086765 86.467233,85.7415668 86.4557728,85.3838799 C86.4351676,84.7454679 86.4193086,84.1084467 86.253078,83.4895069 C85.7374854,81.5697505 84.387383,80.5517453 82.5301384,80.1476959 C80.0649251,79.6113973 77.705516,80.0280805 75.4318846,81.0538515 C74.64009,81.4110748 73.8800134,81.8283375 73.1608,82.3154918 C72.9655138,82.4477409 72.857626,82.5052305 72.7063284,82.2384141 C72.0789122,81.1313928 71.4286913,80.0371212 70.7736086,78.946095 C70.6461574,78.7336387 70.6840108,78.6411455 70.8863583,78.5123736 C74.6714608,76.1031448 78.7994428,75.1304589 83.2567604,75.5491125 C84.5869523,75.6739437 85.8813744,75.9663753 87.1002057,76.5361708 C89.9184853,77.8536779 91.4063415,80.1186034 91.7562823,83.166476 C91.9417289,84.7818624 91.834883,86.4076804 91.8435649,88.0286303 C91.8662538,92.2433319 91.8631283,96.4581494 91.8825759,100.672851 C91.8840807,101.000518 91.816593,101.11712 91.4613272,101.112252 C89.9282091,101.091389 88.3946279,101.095909 86.8615097,101.109818 C86.5664389,101.112484 86.4623711,101.043056 86.4702428,100.729877 C86.4916583,99.8645203 86.4776514,98.9982364 86.4776514,98.0306505 C84.6156606,100.175729 82.2643547,101.02567 79.6319848,101.276375 Z M86.4517212,90.1884287 C86.4776514,89.8747862 86.3569143,89.8026925 86.0597598,89.8043152 C83.8177307,89.8168331 81.5754702,89.7992153 79.3335569,89.8198466 C78.2633608,89.8298146 77.1943223,89.9068923 76.1803852,90.30816 C75.2274534,90.6853191 74.5934389,91.3393785 74.3854192,92.3692062 C73.966833,94.4425385 75.0395759,96.1664132 77.1844827,96.7273998 C79.3209391,97.2861842 81.4165324,97.0477649 83.388842,96.0742677 C85.4045613,95.0793278 86.6242028,93.5311671 86.4459333,91.2215018 C86.4459333,90.8252181 86.4255596,90.504853 86.4517212,90.1884287 Z M190.181148,90.4828887 C189.81257,90.481382 189.716837,90.5435077 189.822757,90.9338802 C190.809954,94.5725274 193.727323,96.8250509 197.487538,96.845914 C200.198855,96.8608659 202.561506,95.986005 204.534857,94.111568 C204.738478,93.9181203 204.833054,93.9448947 205.006693,94.1340538 C205.809369,95.0083352 206.618412,95.8770531 207.445166,96.728385 C207.659668,96.9491865 207.639178,97.0664837 207.434979,97.274072 C205.541617,99.1988123 203.260924,100.407599 200.629365,100.942855 C197.696368,101.539425 194.783165,101.47556 191.961529,100.401688 C187.66639,98.7670613 185.214026,95.5756966 184.412971,91.1018285 C183.916247,88.3270312 184.111996,85.5790082 185.218078,82.9608003 C186.945788,78.8713934 190.096528,76.5362287 194.403706,75.7150324 C196.59237,75.2977697 198.783117,75.3816859 200.943073,75.9191435 C204.684303,76.8499872 207.087237,79.215867 208.245642,82.8727115 C209.005256,85.2704655 209.067534,87.7386907 208.958142,90.2236063 C208.945061,90.5190515 208.772926,90.4907704 208.580418,90.4906545 C206.757902,90.4891477 204.935269,90.4898431 203.112752,90.4898431 C201.854331,90.4898431 200.595795,90.4898431 199.337374,90.4898431 C196.28526,90.4898431 193.233146,90.4951748 190.181148,90.4828887 Z M203.758343,86.4819184 C204.060591,86.4834252 204.15343,86.4117951 204.1253,86.0966458 C204.009772,84.8027835 203.653349,83.5948078 202.889452,82.5333377 C201.720861,80.9096061 200.07152,80.1471743 198.132318,79.9320522 C193.998548,79.4735268 190.575425,81.6337888 189.692065,86.0529491 C189.625387,86.3864116 189.675743,86.4874819 190.043742,86.4845843 C192.314942,86.4666188 194.586259,86.4755436 196.857575,86.4755436 C199.157831,86.4755436 201.458087,86.4703278 203.758343,86.4819184 Z M102.243475,96.1766709 C104.036126,96.8015219 105.868482,97.161411 107.77886,96.9241508 C108.37097,96.8506662 108.943632,96.704856 109.472421,96.4201901 C110.982387,95.607455 111.26866,93.7163274 110.067772,92.4898067 C109.540025,91.9509582 108.880427,91.623291 108.194553,91.3427977 C106.733784,90.7455325 105.194183,90.3905114 103.704012,89.8834212 C102.841257,89.5897146 101.99355,89.2634383 101.18254,88.8433938 C98.5751737,87.4930852 97.3345797,85.3576271 97.4802051,82.4171996 C97.6192322,79.6083258 99.0270986,77.6633018 101.533175,76.4854618 C103.478976,75.5709609 105.553038,75.3388005 107.671783,75.4494911 C110.263174,75.5847537 112.72121,76.2188772 114.981413,77.5304732 C115.740564,77.9710331 115.736744,77.9784511 115.34594,78.7703231 C114.85975,79.7557586 114.367309,80.7381806 113.890149,81.7280206 C113.771727,81.9736261 113.694284,82.0662353 113.399908,81.895853 C111.370529,80.7213742 109.198187,79.9818919 106.843987,79.8358499 C105.970582,79.7816058 105.107132,79.8469769 104.279452,80.1493765 C103.43464,80.458151 102.847045,81.0150808 102.707207,81.9452291 C102.560656,82.9201171 102.935369,83.672581 103.730289,84.2254541 C104.818312,84.9822065 106.082406,85.3159008 107.323578,85.6987394 C108.758996,86.1413856 110.207262,86.5447396 111.580285,87.1684316 C112.426602,87.5528928 113.22731,88.0110705 113.93599,88.6189992 C115.756654,90.1804891 116.330937,92.2175428 116.108332,94.5188628 C115.816618,97.5339339 114.067261,99.5077027 111.313112,100.429158 C106.050688,102.189775 101.115168,101.353859 96.5892046,98.1242448 C96.2466724,97.8799143 96.1999056,97.671167 96.404684,97.2875171 C97.0030446,96.1664711 97.5508184,95.0183031 98.1344775,93.8485765 C99.368589,94.9041354 100.744969,95.6541652 102.243475,96.1766709 Z M173.241813,80.521911 C173.613054,80.0308159 173.908704,79.5375186 174.25876,79.0805 C175.913657,76.9205857 178.131956,75.7955989 180.809472,75.5374756 C181.203054,75.4994583 181.710891,75.2796999 181.971349,75.5484867 C182.200785,75.7851674 182.033512,76.2936484 182.035943,76.6815869 C182.043236,77.8982555 182.027145,79.115156 182.046246,80.3314769 C182.051223,80.654276 181.975864,80.7456102 181.640509,80.7336719 C179.885017,80.6711984 178.206505,80.9861158 176.706262,81.9451248 C174.445133,83.3904766 173.302587,85.5216461 173.25964,88.1636148 C173.192268,92.3195519 173.236488,96.4773435 173.250727,100.634208 C173.252,101.012526 173.165991,101.120087 172.776923,101.113712 C171.229567,101.088792 169.681284,101.092849 168.133696,101.111858 C167.799151,101.11603 167.732358,101.014033 167.73259,100.697377 C167.741387,92.4848343 167.741735,84.2722919 167.731895,76.0596335 C167.731548,75.7304596 167.820104,75.645848 168.142378,75.6490933 C169.704552,75.6650884 171.267073,75.6696088 172.829015,75.6465434 C173.198867,75.6410958 173.251537,75.7767062 173.247949,76.0955645 C173.233247,77.4135353 173.241813,78.7317379 173.241813,80.0497087 L173.241813,80.521911 Z M159.63877,100.635831 C159.640159,101.018437 159.548246,101.119508 159.163462,101.113365 C157.645392,101.089256 156.126512,101.095399 154.608096,101.110119 C154.290683,101.113133 154.166473,101.060975 154.167052,100.69645 C154.17886,92.4858775 154.177934,84.2754214 154.169136,76.0648493 C154.168789,75.7488887 154.23454,75.6439935 154.570127,75.6480502 C156.117367,75.666827 157.665187,75.6684497 159.212312,75.6472388 C159.572092,75.6423708 159.636802,75.763377 159.635992,76.0911601 L159.63877,100.635831 Z M156.869468,71.6954244 C155.058064,71.6837178 153.685504,70.2535497 153.691061,68.3838649 C153.696849,66.4763945 155.060727,65.0458787 156.885559,65.0334767 C158.724976,65.0209588 160.098925,66.4615585 160.0958,68.3993963 C160.092674,70.3010713 158.716179,71.7072468 156.869468,71.6954244 Z" id="Logo"></path>
                </g>
            </g>
        </g>
    </g>
</svg>